<svg width="104" height="104" viewBox="0 0 104 104" fill="none" xmlns="http://www.w3.org/2000/svg">
<path d="M102.422 91.5529C102.422 94.2099 101.708 95.1269 99.1049 95.3689C94.6618 95.7834 90.2109 96.1102 85.7549 96.3489C74.7119 96.9399 63.6629 97.4289 52.6209 98.0129C43.5839 98.4939 34.5479 99.0329 25.5109 99.5499C18.6669 99.9559 11.8289 100.35 4.99091 100.802C2.45091 100.972 1.02891 99.8319 1.01191 97.2759C0.97191 90.2179 0.99591 83.1649 0.99591 76.1009V51.4459H1.00191V6.38294C1.00191 2.99594 1.88891 2.02294 5.26291 2.20194C16.2359 2.75994 27.2079 3.40694 38.1879 4.02794C45.1479 4.42394 52.1189 4.85194 59.0899 5.24794C70.1952 5.88128 81.2996 6.50328 92.4029 7.11394C94.4689 7.22394 96.5439 7.21394 98.6099 7.28394C101.18 7.37594 102.386 8.58794 102.386 11.1519C102.41 37.9519 102.423 64.7523 102.426 91.5529H102.422Z" fill="#0074D9"/>
<path d="M52.303 35.8012L52.412 35.8472C52.892 35.9772 53.399 36.0462 53.922 36.0462C55.454 36.0459 56.9231 35.4372 58.0063 34.3538C59.0895 33.2704 59.698 31.8012 59.698 30.2692C59.698 29.5105 59.5486 28.7593 59.2583 28.0584C58.9679 27.3575 58.5424 26.7207 58.006 26.1842C57.4695 25.6478 56.8327 25.2223 56.1318 24.9319C55.4309 24.6416 54.6797 24.4922 53.921 24.4922C53.1623 24.4921 52.411 24.6414 51.7099 24.9316C51.0089 25.2219 50.372 25.6474 49.8354 26.1839C49.2989 26.7203 48.8732 27.3572 48.5829 28.0582C48.2925 28.7592 48.143 29.5105 48.143 30.2692C48.143 31.8092 48.745 33.2092 49.729 34.2452L49.731 34.2432L35.748 54.2832L35.73 54.2782C35.1709 54.1058 34.5891 54.0185 34.004 54.0192C30.813 54.0192 28.208 56.6052 28.208 59.7962C28.208 62.9872 30.757 65.5732 33.948 65.5732C34.912 65.5759 35.8606 65.3319 36.7037 64.8646C37.5468 64.3973 38.2564 63.7221 38.765 62.9032L62.908 71.6052L62.921 71.6062C62.868 72.3957 62.9777 73.1876 63.2434 73.9329C63.5091 74.6782 63.925 75.361 64.4655 75.9389C65.0059 76.5169 65.6593 76.9776 66.3851 77.2926C67.111 77.6076 67.8938 77.7702 68.685 77.7702C70.2172 77.7702 71.6866 77.1615 72.77 76.0781C73.8534 74.9947 74.462 73.5253 74.462 71.9932C74.4622 70.7683 74.073 69.575 73.3506 68.5858C72.6283 67.5965 71.6102 66.8624 70.4434 66.4896C69.2766 66.1168 68.0215 66.1245 66.8593 66.5116C65.6972 66.8987 64.6882 67.6451 63.978 68.6432L63.98 68.6452L39.648 59.7962C39.648 58.3652 39.398 57.0552 38.114 56.0452V56.0492L52.265 35.8442" fill="white"/>
</svg>
