<svg xmlns="http://www.w3.org/2000/svg" version="1.1" xmlns:xlink="http://www.w3.org/1999/xlink" width="2000" height="101" viewBox="0 0 2000 101"><svg xml:space="preserve" width="2000" height="101" data-version="2" data-id="lg_bMa1jNV0hEbLbKCfeF" viewBox="0 0 567 101" x="0" y="0"><rect width="100%" height="100%" fill="transparent"></rect><path d="M151.55 68.19q-4.54 0-8.49-1.7-3.95-1.71-6.89-4.79-2.94-3.08-4.62-7.17-1.68-4.09-1.68-8.79 0-4.65 1.66-8.71 1.65-4.06 4.62-7.14 2.96-3.08 6.88-4.82 3.92-1.73 8.52-1.73 4.2 0 7.39 1.15 3.19 1.14 6.33 3.72.44.34.64.76t.17.84q-.03.42-.2.81-.05.84-.7 1.34-.64.51-1.51.53-.87.03-1.71-.58-2.13-1.85-4.48-2.8-2.35-.96-5.93-.96-3.42 0-6.42 1.4-2.99 1.4-5.29 3.81-2.29 2.41-3.58 5.6-1.29 3.19-1.29 6.78 0 3.69 1.29 6.86 1.29 3.16 3.58 5.6 2.3 2.43 5.29 3.78 3 1.34 6.42 1.34 2.96 0 5.6-.98 2.63-.98 4.98-2.77.9-.67 1.79-.59.9.09 1.51.73.62.64.62 1.76 0 .51-.17.98-.17.48-.61.87-2.92 2.52-6.42 3.7-3.5 1.17-7.3 1.17"></path><rect width="36.22" height="44.85" x="-18.11" y="-22.43" fill="none" rx="0" ry="0" transform="translate(148.48 46.27)"></rect><path d="M177.92 67.63q-1.12 0-1.87-.75-.76-.76-.76-1.88V26.53q0-1.18.76-1.9.75-.73 1.87-.73 1.18 0 1.91.73.72.72.72 1.9V65q0 1.12-.72 1.88-.73.75-1.91.75"></path><rect width="5.26" height="43.73" x="-2.63" y="-21.86" fill="none" rx="0" ry="0" transform="translate(178.42 46.27)"></rect><path d="M204.58 67.63q-1.07 0-1.85-.75-.78-.76-.78-1.88V23.9h5.26V65q0 1.12-.73 1.88-.73.75-1.9.75M189.4 28.71q-1.06 0-1.73-.67-.68-.67-.68-1.73 0-1.07.68-1.74.67-.67 1.73-.67h30.35q1.12 0 1.8.67.67.67.67 1.74 0 1.06-.67 1.73-.68.67-1.8.67Z"></path><rect width="35.23" height="43.73" x="-17.61" y="-21.86" fill="none" rx="0" ry="0" transform="translate(205.1 46.27)"></rect><path d="M222.16 67.63q-1.45 0-2.18-1.23-.73-1.23-.11-2.57l16.01-38.14q.73-1.79 2.47-1.79 1.84 0 2.52 1.79l16.07 38.25q.56 1.34-.2 2.52-.75 1.17-2.21 1.17-.73 0-1.4-.42-.67-.42-1.01-1.2l-14.5-35.62h1.62l-14.61 35.62q-.34.84-1.01 1.23-.67.39-1.46.39m3.25-9.91 2.07-4.42h22.23l2.02 4.42Z"></path><rect width="37.92" height="43.73" x="-18.96" y="-21.86" fill="none" rx="0" ry="0" transform="translate(238.88 46.27)"></rect><path d="M271.89 67.63q-1.06 0-1.85-.75-.78-.76-.78-1.88V23.9h5.26V65q0 1.12-.73 1.88-.72.75-1.9.75m-15.18-38.92q-1.06 0-1.73-.67-.67-.67-.67-1.73 0-1.07.67-1.74.67-.67 1.73-.67h30.36q1.12 0 1.79.67.67.67.67 1.74 0 1.06-.67 1.73-.67.67-1.79.67Z"></path><rect width="35.22" height="43.73" x="-17.61" y="-21.86" fill="none" rx="0" ry="0" transform="translate(272.42 46.27)"></rect><path d="M298.6 67.63q-1.12 0-1.87-.75-.76-.76-.76-1.88V26.53q0-1.18.76-1.9.75-.73 1.87-.73 1.18 0 1.91.73.72.72.72 1.9V65q0 1.12-.72 1.88-.73.75-1.91.75"></path><rect width="5.26" height="43.73" x="-2.63" y="-21.86" fill="none" rx="0" ry="0" transform="translate(299.1 46.27)"></rect><path d="M332.65 68.19q-4.93 0-9.02-1.65-4.08-1.65-7.02-4.67-2.94-3.03-4.6-7.12-1.65-4.08-1.65-9.01 0-4.87 1.65-8.96 1.66-4.09 4.6-7.11 2.94-3.03 7.02-4.68 4.09-1.65 9.02-1.65 4.87 0 8.96 1.65 4.09 1.65 7.06 4.68 2.96 3.02 4.62 7.11 1.65 4.09 1.65 8.96 0 4.93-1.65 9.01-1.66 4.09-4.62 7.12-2.97 3.02-7.06 4.67t-8.96 1.65m0-4.81q3.75 0 6.89-1.35 3.13-1.34 5.46-3.72 2.32-2.38 3.58-5.6 1.26-3.22 1.26-6.97 0-3.75-1.26-6.95-1.26-3.19-3.58-5.6-2.33-2.4-5.46-3.72-3.14-1.32-6.89-1.32-3.75 0-6.89 1.32-3.13 1.32-5.43 3.72-2.3 2.41-3.58 5.6-1.29 3.2-1.29 6.95t1.29 6.97q1.28 3.22 3.58 5.6 2.3 2.38 5.43 3.72 3.14 1.35 6.89 1.35"></path><rect width="44.58" height="44.85" x="-22.29" y="-22.43" fill="none" rx="0" ry="0" transform="translate(333.15 46.27)"></rect><path d="M366.59 67.63q-1.12 0-1.85-.75-.73-.76-.73-1.88V26.53q0-1.18.73-1.9.73-.73 1.85-.73 1.23 0 2.07.95l25.31 33.54V26.53q0-1.18.76-1.9.75-.73 1.87-.73t1.85.73q.73.72.73 1.9V65q0 1.12-.73 1.88-.73.75-1.85.75-.56 0-1.12-.22t-.89-.67l-25.37-33.55V65q0 1.12-.73 1.88-.73.75-1.9.75"></path><rect width="35.17" height="43.73" x="-17.59" y="-21.86" fill="none" rx="0" ry="0" transform="translate(382.1 46.27)"></rect><path d="M412.95 67.63q-1.06 0-1.82-.75-.75-.76-.75-1.88V26.53q0-1.12.75-1.88.76-.75 1.82-.75 1.12 0 1.88.75.76.76.76 1.88v35.95h20.94q1.06 0 1.85.73.78.73.78 1.85 0 1.06-.78 1.82-.79.75-1.85.75Z"></path><rect width="28.78" height="43.73" x="-14.39" y="-21.86" fill="none" rx="0" ry="0" transform="translate(425.27 46.27)"></rect><path d="M448.79 67.63q-1.12 0-1.87-.75-.76-.76-.76-1.88V26.53q0-1.18.76-1.9.75-.73 1.87-.73h25.71q1.12 0 1.85.7.72.7.72 1.82 0 1.01-.72 1.71-.73.7-1.85.7h-23.07v14.33h16.63q1.17 0 1.87.7.7.7.7 1.77 0 1.06-.7 1.76t-1.87.7h-16.63v14.62h23.07q1.12 0 1.85.7.72.7.72 1.7 0 1.12-.72 1.82-.73.7-1.85.7Z"></path><rect width="30.91" height="43.73" x="-15.46" y="-21.86" fill="none" rx="0" ry="0" transform="translate(462.12 46.27)"></rect><path d="M487.77 67.63q-1.12 0-1.85-.75-.73-.76-.73-1.88V26.53q0-1.18.73-1.9.73-.73 1.85-.73 1.23 0 2.07.95l25.31 33.54V26.53q0-1.18.76-1.9.76-.73 1.88-.73 1.12 0 1.84.73.73.72.73 1.9V65q0 1.12-.73 1.88-.72.75-1.84.75-.56 0-1.12-.22t-.9-.67L490.4 33.19V65q0 1.12-.73 1.88-.72.75-1.9.75"></path><rect width="35.17" height="43.73" x="-17.59" y="-21.86" fill="none" rx="0" ry="0" transform="translate(503.27 46.27)"></rect><path d="M545.28 68.19q-3.58 0-6.75-1.09-3.16-1.09-5.51-3.05-2.35-1.96-3.47-4.59-.56-1.07-.03-1.96.53-.9 1.76-1.18.95-.22 1.85.25.9.48 1.34 1.43.73 1.51 2.3 2.72 1.57 1.2 3.78 1.93t4.73.73q2.8 0 5.07-.9 2.27-.89 3.64-2.6t1.37-4.17q0-3.14-2.41-5.55-2.4-2.41-7.72-3.02-6.78-.73-10.64-4.09-3.87-3.36-3.87-8.29 0-3.58 1.96-6.13t5.38-3.89q3.41-1.35 7.73-1.35 3.24 0 5.79.96 2.55.95 4.43 2.6 1.87 1.65 3.22 3.78.67 1.12.53 2.1t-1.04 1.54q-1.01.56-2.1.22-1.09-.33-1.65-1.28-.84-1.52-2.13-2.64t-3.05-1.79q-1.76-.67-4.17-.67-4.26-.06-7 1.65-2.75 1.71-2.75 5.13 0 1.79.93 3.33.92 1.54 3.25 2.69 2.32 1.14 6.52 1.65 6.78.78 10.36 4.11 3.58 3.34 3.58 8.77 0 3.13-1.2 5.49-1.2 2.35-3.33 3.94-2.13 1.6-4.9 2.41-2.77.81-5.8.81"></path><rect width="31.38" height="44.8" x="-15.69" y="-22.4" fill="none" rx="0" ry="0" transform="translate(545.32 46.29)"></rect><path fill="#0074d9" d="M106.922 90.553c0 2.657-.714 3.574-3.317 3.816a339.074 339.074 0 0 1-13.35.98c-11.043.591-22.092 1.08-33.134 1.664-9.037.481-18.073 1.02-27.11 1.537-6.844.406-13.682.8-20.52 1.252-2.54.17-3.962-.97-3.979-3.526-.04-7.058-.016-14.111-.016-21.175V50.446h.006V5.383c0-3.387.887-4.36 4.261-4.181 10.973.558 21.945 1.205 32.925 1.826 6.96.396 13.931.824 20.902 1.22q16.658.95 33.313 1.866c2.066.11 4.141.1 6.207.17 2.57.092 3.776 1.304 3.776 3.868q.036 40.2.04 80.401Z"></path><path fill="#fff" d="m56.803 34.801.109.046c.48.13.987.199 1.51.199a5.777 5.777 0 0 0 5.776-5.777 5.777 5.777 0 0 0-5.777-5.777 5.777 5.777 0 0 0-5.778 5.777c0 1.54.602 2.94 1.586 3.976l.002-.002-13.983 20.04-.018-.005a5.837 5.837 0 0 0-1.726-.259c-3.191 0-5.796 2.586-5.796 5.777s2.549 5.777 5.74 5.777a5.652 5.652 0 0 0 4.817-2.67l24.143 8.702.013.001a5.777 5.777 0 0 0 5.764 6.164 5.777 5.777 0 0 0 5.777-5.777 5.777 5.777 0 0 0-10.484-3.35l.002.002-24.332-8.849c0-1.431-.25-2.741-1.534-3.751v.004l14.151-20.205"></path></svg></svg>